# Tiled2Unity generated file. Do not modify by hand.
# Wavefront file for 'Sunnyland_mesh_0002.obj'

# Vertices (Count = 168)
v -688 -688 0
v -704 -688 0
v -704 -672 0
v -688 -672 0
v -704 -688 0
v -720 -688 0
v -720 -672 0
v -704 -672 0
v -720 -688 0
v -736 -688 0
v -736 -672 0
v -720 -672 0
v -736 -688 0
v -752 -688 0
v -752 -672 0
v -736 -672 0
v -752 -688 0
v -768 -688 0
v -768 -672 0
v -752 -672 0
v -768 -688 0
v -784 -688 0
v -784 -672 0
v -768 -672 0
v -784 -688 0
v -800 -688 0
v -800 -672 0
v -784 -672 0
v -800 -688 0
v -816 -688 0
v -816 -672 0
v -800 -672 0
v -704 -704 0
v -720 -704 0
v -720 -688 0
v -704 -688 0
v -720 -704 0
v -736 -704 0
v -736 -688 0
v -720 -688 0
v -736 -704 0
v -752 -704 0
v -752 -688 0
v -736 -688 0
v -752 -704 0
v -768 -704 0
v -768 -688 0
v -752 -688 0
v -768 -704 0
v -784 -704 0
v -784 -688 0
v -768 -688 0
v -784 -704 0
v -800 -704 0
v -800 -688 0
v -784 -688 0
v -704 -720 0
v -720 -720 0
v -720 -704 0
v -704 -704 0
v -720 -720 0
v -736 -720 0
v -736 -704 0
v -720 -704 0
v -736 -720 0
v -752 -720 0
v -752 -704 0
v -736 -704 0
v -752 -720 0
v -768 -720 0
v -768 -704 0
v -752 -704 0
v -768 -720 0
v -784 -720 0
v -784 -704 0
v -768 -704 0
v -784 -720 0
v -800 -720 0
v -800 -704 0
v -784 -704 0
v -704 -736 0
v -720 -736 0
v -720 -720 0
v -704 -720 0
v -720 -736 0
v -736 -736 0
v -736 -720 0
v -720 -720 0
v -736 -736 0
v -752 -736 0
v -752 -720 0
v -736 -720 0
v -752 -736 0
v -768 -736 0
v -768 -720 0
v -752 -720 0
v -768 -736 0
v -784 -736 0
v -784 -720 0
v -768 -720 0
v -784 -736 0
v -800 -736 0
v -800 -720 0
v -784 -720 0
v -688 -752 0
v -704 -752 0
v -704 -736 0
v -688 -736 0
v -704 -752 0
v -720 -752 0
v -720 -736 0
v -704 -736 0
v -720 -752 0
v -736 -752 0
v -736 -736 0
v -720 -736 0
v -736 -752 0
v -752 -752 0
v -752 -736 0
v -736 -736 0
v -752 -752 0
v -768 -752 0
v -768 -736 0
v -752 -736 0
v -768 -752 0
v -784 -752 0
v -784 -736 0
v -768 -736 0
v -784 -752 0
v -800 -752 0
v -800 -736 0
v -784 -736 0
v -800 -752 0
v -816 -752 0
v -816 -736 0
v -800 -736 0
v -688 -768 0
v -704 -768 0
v -704 -752 0
v -688 -752 0
v -704 -768 0
v -720 -768 0
v -720 -752 0
v -704 -752 0
v -720 -768 0
v -736 -768 0
v -736 -752 0
v -720 -752 0
v -736 -768 0
v -752 -768 0
v -752 -752 0
v -736 -752 0
v -752 -768 0
v -768 -768 0
v -768 -752 0
v -752 -752 0
v -768 -768 0
v -784 -768 0
v -784 -752 0
v -768 -752 0
v -784 -768 0
v -800 -768 0
v -800 -752 0
v -784 -752 0
v -800 -768 0
v -816 -768 0
v -816 -752 0
v -800 -752 0

# Texture cooridinates (Count = 30)
vt 0.04 0.3043478
vt 0.08 0.3043478
vt 0.08 0.3478261
vt 0.04 0.3478261
vt 0.12 0.3043478
vt 0.12 0.3478261
vt 0.08 0.173913
vt 0.12 0.173913
vt 0.12 0.2173913
vt 0.08 0.2173913
vt 0.16 0.3043478
vt 0.2 0.3043478
vt 0.2 0.3478261
vt 0.16 0.3478261
vt 0.24 0.3043478
vt 0.24 0.3478261
vt 0.08 0.2608696
vt 0.12 0.2608696
vt 0.16 0.2608696
vt 0.2 0.2608696
vt 0.04 0.2173913
vt 0.04 0.2608696
vt 0.16 0.2173913
vt 0.2 0.2173913
vt 0.24 0.2173913
vt 0.24 0.2608696
vt 0.04 0.173913
vt 0.16 0.173913
vt 0.2 0.173913
vt 0.24 0.173913

# Normal
vn 0 0 -1

# Mesh description
g Sunnyland_mesh_0002

# Faces
f 1/1/1 2/2/1 3/3/1 4/4/1
f 5/2/1 6/5/1 7/6/1 8/3/1
f 9/7/1 10/8/1 11/9/1 12/10/1
f 13/7/1 14/8/1 15/9/1 16/10/1
f 17/7/1 18/8/1 19/9/1 20/10/1
f 21/7/1 22/8/1 23/9/1 24/10/1
f 25/11/1 26/12/1 27/13/1 28/14/1
f 29/12/1 30/15/1 31/16/1 32/13/1
f 33/17/1 34/18/1 35/5/1 36/2/1
f 37/7/1 38/8/1 39/9/1 40/10/1
f 41/7/1 42/8/1 43/9/1 44/10/1
f 45/7/1 46/8/1 47/9/1 48/10/1
f 49/7/1 50/8/1 51/9/1 52/10/1
f 53/19/1 54/20/1 55/12/1 56/11/1
f 57/17/1 58/18/1 59/5/1 60/2/1
f 61/7/1 62/8/1 63/9/1 64/10/1
f 65/7/1 66/8/1 67/9/1 68/10/1
f 69/7/1 70/8/1 71/9/1 72/10/1
f 73/7/1 74/8/1 75/9/1 76/10/1
f 77/19/1 78/20/1 79/12/1 80/11/1
f 81/17/1 82/18/1 83/5/1 84/2/1
f 85/7/1 86/8/1 87/9/1 88/10/1
f 89/7/1 90/8/1 91/9/1 92/10/1
f 93/7/1 94/8/1 95/9/1 96/10/1
f 97/7/1 98/8/1 99/9/1 100/10/1
f 101/19/1 102/20/1 103/12/1 104/11/1
f 105/21/1 106/10/1 107/17/1 108/22/1
f 109/10/1 110/9/1 111/18/1 112/17/1
f 113/7/1 114/8/1 115/9/1 116/10/1
f 117/7/1 118/8/1 119/9/1 120/10/1
f 121/7/1 122/8/1 123/9/1 124/10/1
f 125/7/1 126/8/1 127/9/1 128/10/1
f 129/23/1 130/24/1 131/20/1 132/19/1
f 133/24/1 134/25/1 135/26/1 136/20/1
f 137/27/1 138/7/1 139/10/1 140/21/1
f 141/7/1 142/8/1 143/9/1 144/10/1
f 145/7/1 146/8/1 147/9/1 148/10/1
f 149/7/1 150/8/1 151/9/1 152/10/1
f 153/7/1 154/8/1 155/9/1 156/10/1
f 157/7/1 158/8/1 159/9/1 160/10/1
f 161/28/1 162/29/1 163/24/1 164/23/1
f 165/29/1 166/30/1 167/25/1 168/24/1

